<?xml version="1.0" encoding="UTF-8" standalone="no"?>
<!DOCTYPE svg PUBLIC "-//W3C//DTD SVG 1.1//EN"
 "http://www.w3.org/Graphics/SVG/1.1/DTD/svg11.dtd">
<!-- Generated by graphviz version 2.36.0 (20140111.2315)
 -->
<!-- Title: structs Pages: 1 -->
<svg width="519pt" height="205pt"
 viewBox="0.00 0.00 519.20 205.20" xmlns="http://www.w3.org/2000/svg" xmlns:xlink="http://www.w3.org/1999/xlink">
<g id="graph0" class="graph" transform="scale(1 1) rotate(0) translate(21.6 183.6)">
<title>structs</title>
<polygon fill="white" stroke="none" points="-21.6,21.6 -21.6,-183.6 497.6,-183.6 497.6,21.6 -21.6,21.6"/>
<!-- structFPSP -->
<g id="node1" class="node"><title>structFPSP</title>
<polygon fill="thistle" stroke="black" points="0.5,-12 0.5,-58 145.5,-58 145.5,-12 0.5,-12"/>
<text text-anchor="middle" x="73" y="-42.8" font-family="Times,serif" font-size="14.00">Frame Pointer in A6.L </text>
<polyline fill="none" stroke="black" points="0.5,-35 145.5,-35 "/>
<text text-anchor="middle" x="73" y="-19.8" font-family="Times,serif" font-size="14.00">Stack pointer in A7.L</text>
</g>
<!-- structStack -->
<g id="node3" class="node"><title>structStack</title>
<polygon fill="yellowgreen" stroke="black" points="182.5,-0.5 182.5,-161.5 285.5,-161.5 285.5,-0.5 182.5,-0.5"/>
<text text-anchor="middle" x="234" y="-146.3" font-family="Times,serif" font-size="14.00">$1B.W </text>
<polyline fill="none" stroke="black" points="182.5,-138.5 285.5,-138.5 "/>
<text text-anchor="middle" x="234" y="-123.3" font-family="Times,serif" font-size="14.00">$21.W </text>
<polyline fill="none" stroke="black" points="182.5,-115.5 285.5,-115.5 "/>
<text text-anchor="middle" x="234" y="-100.3" font-family="Times,serif" font-size="14.00">Answer (.L) </text>
<polyline fill="none" stroke="black" points="182.5,-92.5 285.5,-92.5 "/>
<text text-anchor="middle" x="234" y="-77.3" font-family="Times,serif" font-size="14.00">Stack_tidy (.L) </text>
<polyline fill="none" stroke="black" points="182.5,-69.5 285.5,-69.5 "/>
<text text-anchor="middle" x="234" y="-54.3" font-family="Times,serif" font-size="14.00">Old A6.L </text>
<polyline fill="none" stroke="black" points="182.5,-46.5 285.5,-46.5 "/>
<text text-anchor="middle" x="234" y="-31.3" font-family="Times,serif" font-size="14.00">Temp (.L) </text>
<polyline fill="none" stroke="black" points="182.5,-23.5 285.5,-23.5 "/>
<text text-anchor="middle" x="234" y="-8.3" font-family="Times,serif" font-size="14.00">Old A0.L</text>
</g>
<!-- structFPSP&#45;&gt;structStack -->
<g id="edge1" class="edge"><title>structFPSP:fp&#45;&gt;structStack:a6</title>
<path fill="none" stroke="black" stroke-dasharray="5,2" d="M146,-47C158.678,-47 163.207,-53.3171 171.938,-56.3769"/>
<polygon fill="black" stroke="black" points="171.57,-59.8627 182,-58 172.685,-52.952 171.57,-59.8627"/>
</g>
<!-- structFPSP&#45;&gt;structStack -->
<g id="edge2" class="edge"><title>structFPSP:sp&#45;&gt;structStack:a7</title>
<path fill="none" stroke="black" stroke-dasharray="5,2" d="M146,-23C158.678,-23 163.207,-16.6829 171.938,-13.6231"/>
<polygon fill="black" stroke="black" points="172.685,-17.048 182,-12 171.57,-10.1373 172.685,-17.048"/>
</g>
<!-- structTemp -->
<g id="node2" class="node"><title>structTemp</title>
<polygon fill="thistle" stroke="black" points="322.5,-15 322.5,-51 475.5,-51 475.5,-15 322.5,-15"/>
<text text-anchor="middle" x="399" y="-29.3" font-family="Times,serif" font-size="14.00">Space reserved for temp.</text>
</g>
<!-- structStack&#45;&gt;structTemp -->
<g id="edge7" class="edge"><title>structStack:temp&#45;&gt;structTemp:temp</title>
<path fill="none" stroke="black" stroke-dasharray="5,2" d="M296.075,-34.9751C304.76,-34.9336 313.66,-34.8428 322.415,-34.7219"/>
<polygon fill="black" stroke="black" points="295.991,-31.4752 286,-35 296.009,-38.4752 295.991,-31.4752"/>
</g>
<!-- structP -->
<g id="node4" class="node"><title>structP</title>
<polygon fill="thistle" stroke="black" points="336.5,-70 336.5,-162 461.5,-162 461.5,-70 336.5,-70"/>
<text text-anchor="middle" x="399" y="-146.8" font-family="Times,serif" font-size="14.00">Copy of a&#39;s value. </text>
<polyline fill="none" stroke="black" points="336.5,-139 461.5,-139 "/>
<text text-anchor="middle" x="399" y="-123.8" font-family="Times,serif" font-size="14.00">Copy of b&#39;s value. </text>
<polyline fill="none" stroke="black" points="336.5,-116 461.5,-116 "/>
<text text-anchor="middle" x="399" y="-100.8" font-family="Times,serif" font-size="14.00">Address of answer. </text>
<polyline fill="none" stroke="black" points="336.5,-93 461.5,-93 "/>
<text text-anchor="middle" x="399" y="-77.8" font-family="Times,serif" font-size="14.00">Return address.</text>
</g>
<!-- structStack&#45;&gt;structP -->
<g id="edge3" class="edge"><title>structStack:a&#45;&gt;structP:a</title>
<path fill="none" stroke="black" stroke-dasharray="5,2" d="M296.348,-150.085C310.263,-150.327 317.132,-151 335,-151"/>
<polygon fill="black" stroke="black" points="296.029,-146.583 286,-150 295.971,-153.582 296.029,-146.583"/>
</g>
<!-- structStack&#45;&gt;structP -->
<g id="edge4" class="edge"><title>structStack:b&#45;&gt;structP:b</title>
<path fill="none" stroke="black" stroke-dasharray="5,2" d="M296.348,-127.085C310.263,-127.327 317.132,-128 335,-128"/>
<polygon fill="black" stroke="black" points="296.029,-123.583 286,-127 295.971,-130.582 296.029,-123.583"/>
</g>
<!-- structStack&#45;&gt;structP -->
<g id="edge5" class="edge"><title>structStack:answer&#45;&gt;structP:answer</title>
<path fill="none" stroke="black" stroke-dasharray="5,2" d="M296.347,-104C310.262,-104 317.135,-104 335,-104"/>
<polygon fill="black" stroke="black" points="296,-100.5 286,-104 296,-107.5 296,-100.5"/>
</g>
<!-- structStack&#45;&gt;structP -->
<g id="edge6" class="edge"><title>structStack:stack_tidy&#45;&gt;structP:stack_tidy</title>
<path fill="none" stroke="black" stroke-dasharray="5,2" d="M296.347,-81C310.262,-81 317.135,-81 335,-81"/>
<polygon fill="black" stroke="black" points="296,-77.5001 286,-81 296,-84.5001 296,-77.5001"/>
</g>
</g>
</svg>
